<svg width="464" height="464" viewBox="0 0 464 464" fill="none" xmlns="http://www.w3.org/2000/svg">
<rect width="464" height="464" rx="48" fill="url(#paint0_linear_4_10)"/>
<path d="M130.276 67.5532C122.044 69.1609 113.748 75.5919 110.276 83.0519C107.896 88.1967 107.06 92.4412 107.06 100.03V106.075H101.015C97.7352 106.075 93.4907 106.396 91.5614 106.718C79.5998 108.969 70.3392 118.551 68.3456 130.77C66.352 142.667 73.1688 155.658 84.0372 160.738C89.182 163.118 93.4264 163.954 101.015 163.954H107.06V183.247V202.54H101.015C89.7608 202.54 82.6224 205.048 76.4486 211.157C65.2587 222.347 65.2587 240.611 76.4486 251.801C82.6224 257.911 89.7608 260.419 101.015 260.419H107.06V279.712V299.005H101.015C97.7352 299.005 93.4907 299.326 91.5614 299.648C79.5998 301.899 70.3392 311.481 68.3456 323.7C66.352 335.597 73.1688 348.588 84.0372 353.668C89.182 356.048 93.4264 356.884 100.951 356.884H106.867L107.253 364.794C107.639 373.54 108.282 376.113 111.433 381.515C115.613 388.717 123.009 394.055 130.919 395.47C133.299 395.92 169.312 396.049 237.031 395.984L339.541 395.792L345.972 394.055C368.351 387.946 386.037 371.418 393.432 349.746C397.484 337.977 398.063 323.893 394.976 311.803C392.146 300.999 388.416 293.603 381.278 284.792L377.805 280.548V187.298C377.805 126.525 377.548 92.827 377.162 90.5762C374.975 79.0004 365.65 69.6754 354.075 67.4889C349.766 66.7171 134.456 66.7171 130.276 67.5532ZM353.367 87.425C355.039 88.261 356.39 89.6115 357.226 91.2836C358.512 93.7917 358.512 94.8849 358.512 180.417C358.512 262.605 358.448 266.979 357.419 266.464C356.776 266.207 353.817 265.114 350.795 264.085C315.039 251.608 275.424 272.574 264.748 309.616C258.381 331.674 263.912 355.855 279.282 373.154L282.24 376.499L209.249 376.691C169.119 376.756 135.421 376.691 134.263 376.499C131.627 376.048 128.347 373.283 127.253 370.582C126.675 369.296 126.353 366.016 126.353 361.9V355.276L130.533 353.09C137.993 349.231 143.588 341.321 145.132 332.446C147.125 320.742 140.951 308.137 130.533 302.799L126.353 300.613V279.712V258.811L130.533 256.625C140.951 251.287 147.125 238.682 145.132 226.978C143.588 218.103 137.993 210.193 130.533 206.334L126.353 204.148V183.247V162.346L130.533 160.16C137.993 156.301 143.588 148.391 145.132 139.516C147.125 127.812 140.951 115.207 130.533 109.869L126.353 107.683V100.737C126.353 92.5055 127.446 89.4829 131.369 87.4893C133.684 86.2031 135.485 86.2031 242.304 86.1388C349.83 86.1388 350.859 86.1388 353.367 87.425ZM121.208 126.654C124.102 128.133 126.353 131.799 126.353 135.014C126.353 138.23 124.102 141.896 121.208 143.375C118.957 144.532 117.414 144.661 106.739 144.661C92.8476 144.661 90.7254 144.082 88.4103 139.516C86.8025 136.301 86.8025 133.728 88.4103 130.513C90.7254 125.947 92.6547 125.432 106.61 125.368C117.478 125.368 118.957 125.497 121.208 126.654ZM121.208 223.119C124.102 224.598 126.353 228.264 126.353 231.479C126.353 234.695 124.102 238.361 121.208 239.84C118.957 240.997 117.414 241.126 106.739 241.126C92.8476 241.126 90.7254 240.547 88.4103 235.981C86.8025 232.766 86.8025 230.193 88.4103 226.978C90.7254 222.412 92.6547 221.897 106.61 221.833C117.478 221.833 118.957 221.962 121.208 223.119ZM341.47 281.191C358.448 285.886 371.696 299.134 376.326 316.047C377.869 321.706 378.127 330.838 376.905 336.948C373.175 355.148 361.084 368.781 343.399 374.698C338.833 376.177 337.29 376.37 329.573 376.37C321.855 376.37 320.312 376.177 315.746 374.698C287.964 365.437 274.073 335.597 285.199 309.295C291.051 295.532 304.813 283.892 318.64 281.062C320.569 280.677 322.756 280.226 323.463 280.098C325.843 279.519 338.19 280.291 341.47 281.191ZM121.208 319.584C124.102 321.063 126.353 324.729 126.353 327.944C126.353 331.16 124.102 334.826 121.208 336.305C118.957 337.462 117.414 337.591 106.739 337.591C92.8476 337.591 90.7254 337.012 88.4103 332.446C86.8025 329.231 86.8025 326.658 88.4103 323.443C90.7254 318.877 92.6547 318.362 106.61 318.298C117.478 318.298 118.957 318.427 121.208 319.584Z" fill="white" stroke="#C5C9F7"/>
<path d="M227.965 126.719C226.743 127.426 218.576 135.208 209.83 143.89L193.881 159.71L185.649 151.607C181.147 147.105 176.646 143.118 175.681 142.796C167.578 139.71 159.989 147.298 163.076 155.401C163.912 157.652 184.877 178.938 188.672 181.382C192.466 183.826 195.296 183.826 199.09 181.382C202.756 179.003 239.734 141.767 241.084 139.066C243.271 134.693 241.47 129.227 236.968 126.719C233.882 124.983 230.859 124.983 227.965 126.719Z" fill="white" stroke="#C5C9F7"/>
<path d="M267.065 146.012C264.3 147.426 262.049 151.221 262.049 154.308C262.049 157.523 264.3 161.189 267.193 162.668C269.637 163.89 270.923 163.954 300.635 163.954C330.346 163.954 331.632 163.89 334.076 162.668C336.97 161.189 339.221 157.523 339.221 154.308C339.221 151.092 336.97 147.426 334.076 145.947C331.632 144.725 330.41 144.661 300.506 144.661C270.859 144.725 269.316 144.79 267.065 146.012Z" fill="white" stroke="#C5C9F7"/>
<path d="M227.965 203.891C226.743 204.599 218.576 212.38 209.83 221.062L193.881 236.882L185.649 228.779C181.147 224.277 176.646 220.29 175.681 219.969C167.578 216.882 159.989 224.47 163.076 232.573C163.912 234.824 184.877 256.111 188.672 258.555C192.466 260.998 195.296 260.998 199.09 258.555C202.756 256.175 239.734 218.94 241.084 216.239C243.271 211.866 241.47 206.399 236.968 203.891C233.882 202.155 230.859 202.155 227.965 203.891Z" fill="white" stroke="#C5C9F7"/>
<path d="M267.065 223.183C264.3 224.598 262.049 228.392 262.049 231.479C262.049 234.695 264.3 238.361 267.193 239.84C269.637 241.062 270.923 241.126 300.635 241.126C330.346 241.126 331.632 241.062 334.076 239.84C336.97 238.361 339.221 234.695 339.221 231.479C339.221 228.264 336.97 224.598 334.076 223.119C331.632 221.897 330.41 221.833 300.506 221.833C270.859 221.897 269.316 221.961 267.065 223.183Z" fill="white" stroke="#C5C9F7"/>
<path d="M227.965 281.063C226.743 281.771 218.576 289.552 209.83 298.234L193.881 314.054L185.649 305.951C181.147 301.45 176.646 297.462 175.681 297.141C167.578 294.054 159.989 301.643 163.076 309.746C163.912 311.996 184.877 333.283 188.672 335.727C192.466 338.171 195.296 338.171 199.09 335.727C202.756 333.347 239.734 296.112 241.084 293.411C243.271 289.038 241.47 283.572 236.968 281.063C233.882 279.327 230.859 279.327 227.965 281.063Z" fill="white" stroke="#C5C9F7"/>
<path d="M324.943 300.355C320.57 302.606 319.926 304.921 319.926 318.298C319.926 331.803 320.57 333.989 325.071 336.305C327.322 337.462 328.866 337.591 339.22 337.591C349.573 337.591 351.117 337.462 353.368 336.305C356.262 334.825 358.513 331.16 358.513 327.944C358.513 324.729 356.262 321.063 353.368 319.584C351.374 318.555 349.573 318.298 345.007 318.298H339.22V312.51C339.22 305.307 337.933 302.285 334.075 300.291C330.923 298.683 328.03 298.683 324.943 300.355Z" fill="white" stroke="#C5C9F7"/>
<defs>
<linearGradient id="paint0_linear_4_10" x1="200.734" y1="338.031" x2="498.109" y2="32.7461" gradientUnits="userSpaceOnUse">
<stop stop-color="#764ABC"/>
<stop stop-color="#764ABC"/>
<stop offset="1" stop-color="#C5C9F7"/>
</linearGradient>
</defs>
</svg>
