<svg width="512" height="512" viewBox="0 0 512 512" fill="none" xmlns="http://www.w3.org/2000/svg">
<rect width="512" height="512" rx="32" fill="url(#paint0_linear_4_10)"/>
<path d="M131.822 57.1106C121.8 59.0681 111.699 66.8979 107.471 75.9806C104.574 82.2444 103.556 87.4122 103.556 96.6514V104.011H96.1963C92.2031 104.011 87.0354 104.403 84.6865 104.794C70.123 107.535 58.848 119.201 56.4207 134.078C53.9935 148.563 62.2931 164.38 75.5255 170.565C81.7894 173.462 86.9571 174.48 96.1963 174.48H103.556V197.97V221.459H96.1963C82.4941 221.459 73.803 224.513 66.2863 231.951C52.6624 245.575 52.6624 267.812 66.2863 281.436C73.803 288.874 82.4941 291.928 96.1963 291.928H103.556V315.417V338.907H96.1963C92.2031 338.907 87.0354 339.298 84.6865 339.69C70.123 342.43 58.848 354.097 56.4207 368.974C53.9935 383.459 62.2931 399.275 75.5255 405.461C81.7894 408.358 86.9571 409.376 96.118 409.376H103.321L103.791 419.006C104.261 429.655 105.044 432.787 108.881 439.364C113.97 448.133 122.974 454.632 132.605 456.355C135.502 456.903 179.349 457.059 261.798 456.981L386.605 456.746L394.435 454.632C421.683 447.194 443.215 427.071 452.219 400.684C457.152 386.356 457.857 369.208 454.098 354.488C450.653 341.334 446.112 332.33 437.421 321.603L433.193 316.435V202.902C433.193 128.91 432.88 87.8819 432.41 85.1415C429.748 71.0478 418.394 59.6945 404.301 57.0323C399.055 56.0927 136.912 56.0927 131.822 57.1106ZM403.439 81.3049C405.475 82.3227 407.119 83.967 408.137 86.0028C409.703 89.0564 409.703 90.3875 409.703 194.524C409.703 294.59 409.625 299.914 408.372 299.288C407.589 298.975 403.987 297.644 400.307 296.391C356.774 281.201 308.542 306.726 295.544 351.826C287.793 378.683 294.526 408.123 313.24 429.185L316.841 433.257L227.973 433.492C179.114 433.57 138.086 433.492 136.677 433.257C133.466 432.709 129.473 429.342 128.142 426.053C127.437 424.487 127.046 420.494 127.046 415.483V407.418L132.135 404.756C141.218 400.058 148.03 390.427 149.909 379.622C152.336 365.372 144.82 350.025 132.135 343.527L127.046 340.864V315.417V289.97L132.135 287.308C144.82 280.809 152.336 265.463 149.909 251.213C148.03 240.407 141.218 230.777 132.135 226.079L127.046 223.417V197.97V172.523L132.135 169.86C141.218 165.163 148.03 155.532 149.909 144.727C152.336 130.476 144.82 115.13 132.135 108.631L127.046 105.969V97.5127C127.046 87.4904 128.377 83.8104 133.153 81.3832C135.972 79.8172 138.164 79.8172 268.218 79.7389C399.133 79.7389 400.386 79.7389 403.439 81.3049ZM120.782 129.067C124.305 130.868 127.046 135.331 127.046 139.246C127.046 143.161 124.305 147.624 120.782 149.425C118.042 150.834 116.162 150.991 103.165 150.991C86.2524 150.991 83.6686 150.286 80.8498 144.727C78.8924 140.812 78.8924 137.68 80.8498 133.765C83.6686 128.206 86.0175 127.579 103.008 127.501C116.241 127.501 118.042 127.658 120.782 129.067ZM120.782 246.515C124.305 248.316 127.046 252.779 127.046 256.694C127.046 260.608 124.305 265.071 120.782 266.872C118.042 268.282 116.162 268.438 103.165 268.438C86.2524 268.438 83.6686 267.734 80.8498 262.174C78.8924 258.259 78.8924 255.128 80.8498 251.213C83.6686 245.653 86.0175 245.027 103.008 244.949C116.241 244.949 118.042 245.105 120.782 246.515ZM388.954 317.218C409.625 322.934 425.754 339.064 431.392 359.656C433.271 366.546 433.584 377.665 432.097 385.103C427.555 407.262 412.835 423.861 391.303 431.064C385.744 432.865 383.865 433.1 374.469 433.1C365.073 433.1 363.194 432.865 357.635 431.064C323.81 419.789 306.897 383.459 320.443 351.435C327.568 334.679 344.324 320.507 361.158 317.062C363.507 316.592 366.169 316.044 367.031 315.887C369.928 315.182 384.961 316.122 388.954 317.218ZM120.782 363.962C124.305 365.763 127.046 370.226 127.046 374.141C127.046 378.056 124.305 382.519 120.782 384.32C118.042 385.729 116.162 385.886 103.165 385.886C86.2524 385.886 83.6686 385.181 80.8498 379.622C78.8924 375.707 78.8924 372.575 80.8498 368.66C83.6686 363.101 86.0175 362.475 103.008 362.396C116.241 362.396 118.042 362.553 120.782 363.962Z" fill="white" stroke="#C5C9F7"/>
<path d="M250.761 129.146C249.273 130.007 239.329 139.481 228.68 150.051L209.262 169.313L199.24 159.447C193.759 153.966 188.278 149.112 187.104 148.72C177.238 144.962 167.999 154.201 171.757 164.067C172.775 166.807 198.301 192.724 202.92 195.699C207.54 198.675 210.985 198.675 215.605 195.699C220.068 192.802 265.089 147.467 266.733 144.179C269.396 138.855 267.203 132.199 261.722 129.146C257.964 127.032 254.284 127.032 250.761 129.146Z" fill="white" stroke="#C5C9F7"/>
<path d="M298.364 152.635C294.997 154.357 292.257 158.977 292.257 162.735C292.257 166.65 294.997 171.113 298.521 172.914C301.496 174.402 303.062 174.48 339.236 174.48C375.41 174.48 376.976 174.402 379.952 172.914C383.475 171.113 386.215 166.65 386.215 162.735C386.215 158.82 383.475 154.357 379.952 152.556C376.976 151.069 375.489 150.99 339.08 150.99C302.984 151.069 301.105 151.147 298.364 152.635Z" fill="white" stroke="#C5C9F7"/>
<path d="M250.761 223.103C249.273 223.965 239.329 233.439 228.68 244.009L209.262 263.27L199.24 253.405C193.759 247.924 188.278 243.069 187.104 242.678C177.238 238.92 167.999 248.159 171.757 258.024C172.775 260.765 198.301 286.682 202.92 289.657C207.54 292.632 210.985 292.632 215.605 289.657C220.068 286.76 265.089 241.425 266.733 238.137C269.396 232.812 267.203 226.157 261.722 223.103C257.964 220.989 254.284 220.989 250.761 223.103Z" fill="white" stroke="#C5C9F7"/>
<path d="M298.364 246.593C294.997 248.315 292.257 252.935 292.257 256.693C292.257 260.608 294.997 265.071 298.521 266.872C301.496 268.36 303.062 268.438 339.236 268.438C375.41 268.438 376.976 268.36 379.952 266.872C383.475 265.071 386.215 260.608 386.215 256.693C386.215 252.778 383.475 248.315 379.952 246.515C376.976 245.027 375.489 244.949 339.08 244.949C302.984 245.027 301.105 245.105 298.364 246.593Z" fill="white" stroke="#C5C9F7"/>
<path d="M250.761 317.062C249.273 317.924 239.329 327.398 228.68 337.968L209.262 357.229L199.24 347.364C193.759 341.883 188.278 337.028 187.104 336.637C177.238 332.879 167.999 342.118 171.757 351.983C172.775 354.724 198.301 380.641 202.92 383.616C207.54 386.591 210.985 386.591 215.605 383.616C220.068 380.719 265.089 335.384 266.733 332.096C269.396 326.771 267.203 320.116 261.722 317.062C257.964 314.948 254.284 314.948 250.761 317.062Z" fill="white" stroke="#C5C9F7"/>
<path d="M368.832 340.551C363.508 343.292 362.725 346.11 362.725 362.396C362.725 378.839 363.508 381.501 368.988 384.32C371.729 385.729 373.608 385.886 386.214 385.886C398.82 385.886 400.699 385.729 403.44 384.32C406.963 382.519 409.704 378.056 409.704 374.141C409.704 370.226 406.963 365.763 403.44 363.962C401.013 362.71 398.82 362.396 393.261 362.396H386.214V355.35C386.214 346.58 384.648 342.9 379.95 340.473C376.114 338.515 372.59 338.515 368.832 340.551Z" fill="white" stroke="#C5C9F7"/>
<defs>
<linearGradient id="paint0_linear_4_10" x1="221.5" y1="373" x2="549.637" y2="36.1336" gradientUnits="userSpaceOnUse">
<stop stop-color="#764ABC"/>
<stop stop-color="#764ABC"/>
<stop offset="1" stop-color="#C5C9F7"/>
</linearGradient>
</defs>
</svg>
